<svg xmlns="http://www.w3.org/2000/svg" width="108" height="18.001" viewBox="0 0 108 18.001">
  <metadata><?xpacket begin="﻿" id="W5M0MpCehiHzreSzNTczkc9d"?>
<x:xmpmeta xmlns:x="adobe:ns:meta/" x:xmptk="Adobe XMP Core 5.6-c142 79.160924, 2017/07/13-01:06:39        ">
   <rdf:RDF xmlns:rdf="http://www.w3.org/1999/02/22-rdf-syntax-ns#">
      <rdf:Description rdf:about=""/>
   </rdf:RDF>
</x:xmpmeta>
                                                                                                    
                                                                                                    
                                                                                                    
                                                                                                    
                                                                                                    
                                                                                                    
                                                                                                    
                                                                                                    
                                                                                                    
                                                                                                    
                                                                                                    
                                                                                                    
                                                                                                    
                                                                                                    
                                                                                                    
                                                                                                    
                                                                                                    
                                                                                                    
                                                                                                    
                                                                                                    
                           
<?xpacket end="w"?></metadata>
<defs>
    <style>
      .cls-1 {
        fill: #fff;
        fill-rule: evenodd;
      }
    </style>
  </defs>
  <path id="ТЕХНОМАРТ" class="cls-1" d="M225.421,87.307h3.8v15.748h2.136V87.307h3.8v-1.75h-9.73v1.75Zm13.765,7.5h5.221v-1.75h-5.221V87.307h5.933v-1.75H237.05v17.5h8.069v-1.749h-5.933v-6.5Zm12.34-2.25-2.61-7H246.78l3.2,8.5-3.56,9h2.136l2.966-7.5,2.967,7.5h2.136l-3.56-9,3.2-8.5h-2.136Zm14.239-7v7.749h-4.983V85.557h-2.136v17.5h2.136v-8h4.983v8H267.9v-17.5h-2.136Zm7.939,0.175a3.788,3.788,0,0,0-1.6,1.45,7.92,7.92,0,0,0-1.009,2.762,27.83,27.83,0,0,0,0,8.724,7.912,7.912,0,0,0,1.009,2.762,3.781,3.781,0,0,0,1.6,1.45,5.638,5.638,0,0,0,4.3,0,3.781,3.781,0,0,0,1.6-1.45,7.932,7.932,0,0,0,1.009-2.762,27.83,27.83,0,0,0,0-8.724,7.94,7.94,0,0,0-1.009-2.762,3.788,3.788,0,0,0-1.6-1.45A5.638,5.638,0,0,0,273.7,85.732Zm1.032,15.749a2.61,2.61,0,0,1-.949-1.175,9.058,9.058,0,0,1-.653-2.3,27.609,27.609,0,0,1,0-7.4,9.075,9.075,0,0,1,.653-2.3,2.617,2.617,0,0,1,.949-1.175,2.076,2.076,0,0,1,2.231,0,2.617,2.617,0,0,1,.949,1.175,9.075,9.075,0,0,1,.653,2.3,27.609,27.609,0,0,1,0,7.4,9.058,9.058,0,0,1-.653,2.3,2.61,2.61,0,0,1-.949,1.175A2.077,2.077,0,0,1,274.736,101.48Zm17.253-.675,3.442-10.749h0.118l0.712,13H298.4l-0.949-17.5h-2.611l-3.868,12h-0.095l-3.868-12H284.4l-0.949,17.5h2.136l0.712-13h0.118l3.441,10.749h2.136Zm16.138-2.25,1.068,4.5h2.136l-4.035-17.5h-3.085l-4.034,17.5h2.136l1.068-4.5h4.746Zm-0.356-1.75h-4.035l1.97-8.749H305.8Zm7.831-.625V86.931h1.662a4.069,4.069,0,0,1,1.388.212,2.025,2.025,0,0,1,.961.738,3.627,3.627,0,0,1,.558,1.425,14.308,14.308,0,0,1,0,4.5,3.63,3.63,0,0,1-.558,1.425,2.023,2.023,0,0,1-.961.737,4.054,4.054,0,0,1-1.388.212H315.6Zm0,1.5a10.885,10.885,0,0,0,1.14.175,11.493,11.493,0,0,0,1.234.075,5.758,5.758,0,0,0,2-.313,3.06,3.06,0,0,0,1.4-1.05,5.04,5.04,0,0,0,.831-1.962,14.323,14.323,0,0,0,.273-3.05,13.121,13.121,0,0,0-.285-2.974,4.548,4.548,0,0,0-.9-1.925,3.4,3.4,0,0,0-1.614-1.037,8.164,8.164,0,0,0-2.42-.312,16.207,16.207,0,0,0-1.982.113,10.7,10.7,0,0,0-1.815.388v17.248H315.6V97.681Zm8.069-10.374h3.8v15.748H329.6V87.307h3.8v-1.75h-9.73v1.75Z" transform="translate(-225.406 -85.313)"/>
</svg>
